<?xml version="1.0" encoding="utf-8"?>
<svg version="1.1" id="icons" xmlns="http://www.w3.org/2000/svg" xmlns:xlink="http://www.w3.org/1999/xlink" x="0px" y="0px"
	 viewBox="0 0 125 24.909" enable-background="new 0 0 125 24.909" xml:space="preserve">
<title>logo</title>
<g>
	<path fill="#34A5DE" d="M56.166,15.263v-2.808c0-1.915,1.552-3.467,3.467-3.467c1.915,0,3.467,1.552,3.467,3.467v2.808
		c0,0.878-1.317,0.878-1.317,0v-2.808c0-1.187-0.962-2.15-2.15-2.15c-1.187,0-2.15,0.962-2.15,2.15v2.808
		C57.484,16.141,56.166,16.141,56.166,15.263z"/>
	<path fill="#34A5DE" d="M-0.004,15.263v-2.808c0-1.915,1.552-3.467,3.467-3.467S6.93,10.54,6.93,12.455
		c0,0.878-1.317,0.878-1.317,0c0-1.187-0.963-2.15-2.15-2.15s-2.15,0.962-2.15,2.15v2.808C1.313,16.141-0.004,16.141-0.004,15.263z"
		/>
	<path fill="#34A5DE" d="M89.869,6.276V0.659c0-0.878,1.317-0.878,1.317,0v5.617C91.186,7.154,89.869,7.154,89.869,6.276z"/>
	<path fill="#34A5DE" d="M89.869,15.263v-2.808c0-1.915,1.552-3.467,3.467-3.467s3.467,1.552,3.467,3.467v2.808
		c0,0.878-1.317,0.878-1.317,0v-2.808c0-1.187-0.962-2.15-2.15-2.15c-1.187,0-2.15,0.962-2.15,2.15v2.808
		C91.186,16.141,89.869,16.141,89.869,15.263z"/>
	<path fill="#34A5DE" d="M101.103,15.263V9.646c0-0.878,1.317-0.878,1.317,0v5.617C102.42,16.141,101.103,16.141,101.103,15.263z"/>
	<path fill="#34A5DE" d="M123.145,18.001l0.835,0.835c1.354,1.354,1.354,3.551,0,4.905c-2.29,2.29-6.013,0.462-5.923-2.587
		c0.026-0.878,1.343-0.839,1.317,0.039c-0.056,1.899,2.25,3.042,3.675,1.616c0.839-0.84,0.839-2.202,0-3.042l-0.835-0.835
		C121.592,18.312,122.524,17.38,123.145,18.001z"/>
	<path fill="#34A5DE" d="M119.805,15.851l-0.835-0.835c-1.354-1.354-1.354-3.551,0-4.905c2.29-2.29,6.013-0.462,5.923,2.587
		c-0.026,0.878-1.342,0.839-1.317-0.039c0.056-1.899-2.25-3.042-3.675-1.616c-0.84,0.84-0.84,2.202,0,3.042l0.835,0.835
		C121.357,15.541,120.426,16.472,119.805,15.851z"/>
	<path fill="#34A5DE" d="M78.635,15.263V9.646c0-0.878,1.317-0.878,1.317,0v5.617C79.952,16.141,78.635,16.141,78.635,15.263z"/>
	<path fill="#34A5DE" d="M106.908,6.276V0.659c0-0.878,1.317-0.878,1.317,0v5.617C108.225,7.154,106.908,7.154,106.908,6.276z"/>
	<path fill="#34A5DE" d="M106.908,15.263V9.646c0-0.878,1.317-0.878,1.317,0v5.617C108.225,16.141,106.908,16.141,106.908,15.263z"
		/>
	<path fill="#34A5DE" d="M112.713,6.276V0.659c0-0.878,1.317-0.878,1.317,0v5.617C114.031,7.154,112.713,7.154,112.713,6.276z"/>
	<path fill="#34A5DE" d="M112.713,15.263V9.646c0-0.878,1.317-0.878,1.317,0v5.617C114.031,16.141,112.713,16.141,112.713,15.263z"
		/>
	<path fill="#34A5DE" d="M33.698,24.25v-5.617c0-0.878,1.317-0.878,1.317,0v5.617C35.015,25.129,33.698,25.129,33.698,24.25z"/>
	<path fill="#34A5DE" d="M22.464,24.25v-5.617c0-0.878,1.317-0.878,1.317,0v5.617C23.781,25.129,22.464,25.129,22.464,24.25z"/>
	<path fill="#774637" d="M48.399,8.987c1.915,0,3.467,1.552,3.467,3.467s-1.552,3.467-3.467,3.467s-3.467-1.552-3.467-3.467
		C44.932,10.54,46.484,8.987,48.399,8.987z M48.399,10.305c-1.187,0-2.15,0.962-2.15,2.15c0,1.187,0.963,2.15,2.15,2.15
		s2.15-0.962,2.15-2.15S49.587,10.305,48.399,10.305z"/>
	<path fill="#774637" d="M14.697,8.987c1.915,0,3.467,1.552,3.467,3.467s-1.552,3.467-3.467,3.467s-3.467-1.552-3.467-3.467
		C11.23,10.54,12.782,8.987,14.697,8.987z M14.697,10.305c-1.187,0-2.15,0.962-2.15,2.15c0,1.187,0.963,2.15,2.15,2.15
		s2.15-0.962,2.15-2.15C16.847,11.267,15.884,10.305,14.697,10.305z"/>
	<path fill="#774637" d="M37.165,8.987c1.915,0,3.467,1.552,3.467,3.467s-1.552,3.467-3.467,3.467s-3.467-1.552-3.467-3.467
		C33.698,10.54,35.25,8.987,37.165,8.987z M37.165,10.305c-1.187,0-2.15,0.962-2.15,2.15c0,1.187,0.962,2.15,2.15,2.15
		c1.187,0,2.15-0.962,2.15-2.15C39.315,11.267,38.353,10.305,37.165,10.305z"/>
	<path fill="#774637" d="M25.931,8.987c1.915,0,3.467,1.552,3.467,3.467s-1.552,3.467-3.467,3.467s-3.467-1.552-3.467-3.467
		C22.464,10.54,24.016,8.987,25.931,8.987z M25.931,10.305c-1.187,0-2.15,0.962-2.15,2.15c0,1.187,0.963,2.15,2.15,2.15
		s2.15-0.962,2.15-2.15S27.119,10.305,25.931,10.305z"/>
	<path fill="#774637" d="M70.868,8.987c1.915,0,3.467,1.552,3.467,3.467s-1.552,3.467-3.467,3.467s-3.467-1.552-3.467-3.467
		C67.4,10.54,68.953,8.987,70.868,8.987z M70.868,10.305c-1.187,0-2.15,0.962-2.15,2.15c0,1.187,0.963,2.15,2.15,2.15
		s2.15-0.962,2.15-2.15S72.055,10.305,70.868,10.305z"/>
	<path fill="#774637" d="M70.868,17.975c1.915,0,3.467,1.552,3.467,3.467s-1.552,3.467-3.467,3.467s-3.467-1.552-3.467-3.467
		C67.4,19.527,68.953,17.975,70.868,17.975z M70.868,19.292c-1.187,0-2.15,0.963-2.15,2.15s0.963,2.15,2.15,2.15
		s2.15-0.962,2.15-2.15C73.018,20.255,72.055,19.292,70.868,19.292z"/>
</g>
</svg>
